<svg width="10" height="18" viewBox="0 0 10 18" fill="none" xmlns="http://www.w3.org/2000/svg">
<path d="M8.2232 3.81636H9.7888V0.84751H6.94366C6.70632 0.837253 3.81312 0.779811 3.06323 3.75003C3.05237 3.78114 2.81272 4.48754 2.81272 6.13762L0.211182 6.14583V9.25965L2.81602 9.25179V17.4649H6.79487V9.25897H9.42834V6.13694H6.79487V5.15462C6.79487 4.54396 7.04274 3.81636 8.2232 3.81636ZM8.76997 6.82043V8.5748H6.1365V16.7808H3.47438V8.56591L0.86955 8.57377V6.82761L3.4813 6.81974L3.47438 6.47202C3.44015 4.72415 3.68013 3.98903 3.69099 3.95381C4.33816 1.3956 6.80935 1.52416 6.91535 1.531L9.13043 1.53168V3.13287H8.2232C6.68492 3.13287 6.13683 4.17708 6.13683 5.15427V6.82043H8.76997Z" fill="white"/>
</svg>
