<svg width="132" height="71" viewBox="0 0 132 71" fill="none" xmlns="http://www.w3.org/2000/svg">
<path fill-rule="evenodd" clip-rule="evenodd" d="M66 0.00149519L74.2904 8.3181L74.2893 12.1783L66 3.94182L54.9328 15.0439V23.0974H64.6111V10.2881L72.1653 21.8608L78.1136 12.0861C82.1898 16.2473 86.3016 20.3662 90.4134 24.4907L82.66 32.2685L82.6528 28.334L86.4844 24.4907L79.8456 17.8309C79.8456 23.5844 79.8456 29.3387 79.8456 35.0919C75.2309 39.7212 70.6151 44.3516 66 48.9813L57.7153 40.6705L57.7121 32.1314L60.4913 34.9195V39.512L66.0014 45.0399L77.0685 33.9374V19.4454V19.2762L77.0039 19.379L72.1326 27.1205L67.3918 19.3896V40.6442L64.6126 37.484V25.884H54.934C54.934 29.225 54.934 34.5732 54.934 37.9153C50.5206 33.4077 46.0414 28.9592 41.5869 24.4907L49.3592 16.6938L49.3849 20.6094L45.5159 24.4907L52.1547 31.1505C52.1547 25.3969 52.1547 19.6426 52.1547 13.8894L66 0V0.00149519Z" fill="#BBA470"/>
<path d="M1.75191 65.4039V70.6478H0V59.3755H1.75191V63.7544H9.64767V59.3755H11.3996V70.6478H9.64767V65.4039H1.75191ZM21.1265 69.3504C22.6262 69.3504 23.8527 68.9451 24.7997 68.1296C25.747 67.3188 26.2195 66.2825 26.2195 65.0248C26.2195 63.777 25.7434 62.7449 24.7917 61.9247C23.8396 61.1092 22.6179 60.6991 21.1265 60.6991C19.6352 60.6991 18.4178 61.1045 17.4755 61.92C16.5329 62.7307 16.0605 63.7675 16.0605 65.0248C16.0605 66.2825 16.5318 67.3178 17.4755 68.1296C18.4192 68.9451 19.6363 69.3504 21.1265 69.3504ZM21.1265 70.9989C19.1282 70.9989 17.4799 70.4317 16.1902 69.2961C14.9012 68.1649 14.2544 66.7407 14.2544 65.0248C14.2544 63.3042 14.8965 61.8799 16.1807 60.7586C17.4693 59.6369 19.1177 59.0776 21.1254 59.0776C23.1506 59.0776 24.808 59.6369 26.097 60.7538C27.3812 61.8715 28.0233 63.2947 28.0233 65.0248C28.0233 66.7502 27.3765 68.1744 26.0875 69.3056C24.7986 70.4364 23.1459 70.9989 21.1254 70.9989H21.1265ZM30.9083 59.4024H32.6602V66.6204C32.6602 67.7016 32.9161 68.4311 33.4237 68.8102C33.9314 69.1886 34.9408 69.3778 36.4547 69.3778C37.9722 69.3778 38.988 69.1886 39.4956 68.8102C40.0033 68.4322 40.2591 67.702 40.2591 66.6204V59.4024H42.011V67.08C42.011 68.4627 41.575 69.4591 40.7043 70.0759C39.8292 70.6927 38.4095 71 36.4337 71C34.471 71 33.056 70.6978 32.1983 70.0901C31.3407 69.4816 30.9094 68.4817 30.9094 67.0812V59.4039L30.9083 59.4024ZM44.8985 69.2061L45.7514 67.7289C46.5243 68.2466 47.3677 68.652 48.2799 68.9403C49.1963 69.2331 50.067 69.3774 50.9021 69.3774C51.9036 69.3774 52.7118 69.1743 53.3267 68.7653C53.9419 68.3552 54.2468 67.8329 54.2468 67.1935C54.2468 66.5489 53.9644 66.0754 53.4023 65.7608C52.8416 65.4502 51.9567 65.2785 50.743 65.2432C48.6956 65.2162 47.2889 64.9774 46.5265 64.5316C45.763 64.0814 45.3815 63.338 45.3815 62.3013C45.3815 61.3323 45.7986 60.5537 46.6384 59.9639C47.4786 59.374 48.6058 59.0809 50.0209 59.0809C50.9871 59.0809 51.9211 59.2158 52.8321 59.491C53.7392 59.7615 54.6145 60.1669 55.4591 60.7024L54.5746 62.1621C53.8736 61.6893 53.1192 61.324 52.3114 61.063C51.5032 60.8063 50.7302 60.6751 49.9936 60.6751C49.1407 60.6751 48.4539 60.8242 47.9368 61.1206C47.4208 61.422 47.1607 61.8099 47.1607 62.2918C47.1607 62.7916 47.4209 63.1474 47.9416 63.3592C48.4623 63.5707 49.3694 63.6745 50.6583 63.6745C52.4502 63.6745 53.798 63.976 54.7101 64.5848C55.6219 65.1932 56.0801 66.094 56.0801 67.2922C56.0801 68.3559 55.6171 69.2385 54.6923 69.9454C53.7675 70.6486 52.5683 70.9996 51.0954 70.9996C50.0045 70.9996 48.9267 70.8425 47.8485 70.5304C46.7751 70.2198 45.7914 69.7777 44.8974 69.2057L44.8985 69.2061ZM59.2114 70.6482V59.3755H69.7477V61.0243H60.9634V63.8356H66.7304V65.4571H60.9634V69.0253H70.2331V70.6468H59.2114V70.6482ZM81.7127 70.6482V59.3755H83.1728L87.7719 65.9715L92.3797 59.3755H93.8394V70.6482H92.0876V62.543L87.7723 68.8102L83.4649 62.543V70.6482H81.7131H81.7127ZM99.605 66.2952H103.997L101.814 61.9743L99.604 66.2952H99.605ZM95.5321 70.6482L101.25 59.3755H102.355L108.117 70.6482H106.236L104.776 67.7833H98.8426L97.3923 70.6482H95.5332H95.5321ZM109.791 70.6482V59.3755H111.543V69.0267H119.896V70.6482H109.791ZM121.896 70.6482V59.3755H123.647V69.0267H132V70.6482H121.896Z" fill="white"/>
</svg>
