<svg width="16" height="18" viewBox="0 0 16 18" fill="none" xmlns="http://www.w3.org/2000/svg">
<g clip-path="url(#clip0_421_4034)">
<path d="M11.6689 0.895508H4.33105C1.94287 0.895508 0 2.91351 0 5.39406V13.0158C0 15.4963 1.94287 17.5143 4.33105 17.5143H11.669C14.0571 17.5143 16 15.4963 16 13.0158V5.39406C16 2.91351 14.0571 0.895508 11.6689 0.895508V0.895508ZM15.062 13.0158C15.062 14.9591 13.5399 16.54 11.6689 16.54H4.33105C2.46008 16.54 0.937987 14.9591 0.937987 13.0158V5.39406C0.937987 3.45073 2.46008 1.86977 4.33105 1.86977H11.669C13.5399 1.86977 15.062 3.45073 15.062 5.39406V13.0158Z" fill="white"/>
<path d="M7.99999 4.66113C5.58764 4.66113 3.62512 6.69955 3.62512 9.2052C3.62512 11.7108 5.58764 13.7493 7.99999 13.7493C10.4123 13.7493 12.3749 11.7108 12.3749 9.2052C12.3749 6.69955 10.4123 4.66113 7.99999 4.66113V4.66113ZM7.99999 12.775C6.10497 12.775 4.56311 11.1736 4.56311 9.2052C4.56311 7.23689 6.10497 5.6354 7.99999 5.6354C9.89513 5.6354 11.4369 7.23689 11.4369 9.2052C11.4369 11.1736 9.89513 12.775 7.99999 12.775V12.775Z" fill="white"/>
<path d="M12.4795 3.04688C11.7666 3.04688 11.1868 3.64926 11.1868 4.38959C11.1868 5.13005 11.7666 5.73244 12.4795 5.73244C13.1924 5.73244 13.7723 5.13005 13.7723 4.38959C13.7723 3.64913 13.1924 3.04688 12.4795 3.04688ZM12.4795 4.75805C12.2839 4.75805 12.1248 4.59271 12.1248 4.38959C12.1248 4.18635 12.2839 4.02114 12.4795 4.02114C12.6752 4.02114 12.8343 4.18635 12.8343 4.38959C12.8343 4.59271 12.6752 4.75805 12.4795 4.75805Z" fill="white"/>
</g>
<defs>
<clipPath id="clip0_421_4034">
<rect width="16" height="16.6188" fill="white" transform="translate(0 0.895508)"/>
</clipPath>
</defs>
</svg>
