<svg width="366" height="366" viewBox="0 0 366 366" fill="none" xmlns="http://www.w3.org/2000/svg">
<path fill-rule="evenodd" clip-rule="evenodd" d="M182.999 0.0111724L245.143 62.1548L245.135 90.9988L182.999 29.4542L100.04 112.412V172.589H172.587V76.8753L229.213 163.349L273.802 90.3099C304.357 121.404 335.178 152.181 366 183L307.881 241.118L307.827 211.718L336.548 183L286.784 133.236C286.784 176.228 286.784 262.215 286.784 262.215C286.784 262.215 217.593 331.406 182.999 366L120.898 303.899L120.873 240.094L141.706 260.927V295.243L183.009 336.548L265.968 253.588V145.301V144.036L265.483 144.805L228.968 202.651L193.432 144.884V303.703L172.599 280.089V193.411H100.049C100.049 218.376 100.049 258.339 100.049 283.312C66.9662 249.63 33.3903 216.39 0 183L58.2603 124.74L58.4535 153.998L29.4518 183L79.2157 232.764C79.2157 189.772 79.2157 146.774 79.2157 103.785L182.999 0V0.0111724Z" fill="#B5954E"/>
</svg>
