<svg width="90" height="90" viewBox="0 0 90 90" fill="none" xmlns="http://www.w3.org/2000/svg">
<path fill-rule="evenodd" clip-rule="evenodd" d="M89.0421 57.1293L71.17 75.0015V89.1477H89.0421V74.9802L88.549 74.227V88.6512H72.1645V75.4123L89.0408 58.5359L89.0421 58.5366V57.1293ZM58.4291 89.1477L64.4198 83.1571L64.4104 81.7612L57.0238 89.1477H58.4291ZM89.0421 1.09863H71.17V10.3611V13.8403L58.4283 1.09863H57.0238C62.0751 6.14532 67.1431 11.176 72.1645 16.2533C72.1645 11.8481 72.1645 7.44283 72.1645 3.03695V1.59582H88.549V18.625L89.0421 19.1848V1.09863ZM33.0153 1.09863H31.6103L25.6695 7.04005L25.6721 8.44262L33.0153 1.09863ZM18.8692 1.09863H17.8746V14.8347L0.993164 31.7158V33.1217C6.95187 27.1629 12.9104 21.2042 18.8692 15.2455V1.09863ZM10.1512 1.09863H8.98715L9.56153 2.03258L10.1512 1.09863ZM1.49016 1.09863H0.993164V19.1888L1.49016 19.7524V1.09863ZM0.993164 57.1254V58.5406L11.1182 68.5695L11.119 67.2513L0.993164 57.1254ZM0.993164 74.9862V89.1477H1.49016V76.9618L8.98715 89.1477H10.1512L15.124 81.2719L17.8746 76.9086V89.1477H18.8692V79.8859V76.4067L31.6103 89.1477H33.0153C28.0517 84.1848 23.0877 79.2232 18.1613 74.2231L9.63657 88.1859L0.993164 74.9862ZM89.0421 33.1177V31.7125L79.9172 22.5882V16.1995L78.9248 15.207L78.9277 23.0037L89.0421 33.1177Z" fill="#BBA470" stroke="#BBA470" stroke-width="0.3528" stroke-miterlimit="22.9256"/>
</svg>
