<svg width="16" height="17" viewBox="0 0 16 17" fill="none" xmlns="http://www.w3.org/2000/svg">
<path d="M15.8632 0.514699C15.7306 0.376945 15.5317 0.334586 15.3577 0.406904L0.29516 6.66485C0.122817 6.73645 0.00741071 6.90693 0.000785729 7.09963C-0.00580801 7.29231 0.0976918 7.47086 0.264691 7.55499L6.2043 10.5471L9.08498 16.7164C9.16355 16.8847 9.32761 16.9908 9.50664 16.9908C9.5122 16.9908 9.5178 16.9907 9.52339 16.9905C9.70886 16.9837 9.87304 16.8638 9.94195 16.6848L15.9669 1.03981C16.0366 0.858955 15.9958 0.652421 15.8632 0.514699ZM1.62841 7.15971L13.5854 2.19196L6.45955 9.59339L1.62841 7.15971ZM9.46555 15.3L7.12246 10.2819L14.2484 2.88047L9.46555 15.3Z" fill="white"/>
</svg>
